PathFileType	4	(X/Y/Z)	/Users/itak/Documents/Research/Walk-IL/dataset/trc/00311_00010.trc
DataRate	CameraRate	NumFrames	NumMarkers	Units	OrigDataRate	OrigDataStartFrame	OrigNumFrames
100.000000	100.000000	4	53	mm	100.000000	235	629
Frame#	Time	RPSI			LPSI			L3			STRN			T10			C7			CLAV			RBAK			LBAK			LSHO			LUPA			LAEL			LAOL			LWTS			LWPS			LFRA			LIFD			LHPS			LHTS			RSHO			RUPA			RAEL			RAOL			RWTS			RWPS			RFRA			RIFD			RHTS			RHPS			RBHD			LFHD			RFHD			LBHD			LHIP			RHIP			RASI			LASI			LKNE			LTHI			LANK			LTIP			LTOE			LMT1			LMT5			LHEE			RKNE			RTHI			RANK			RTIP			RTOE			RMT1			RMT5			RHEE			
		X1	Y1	Z1	X2	Y2	Z2	X3	Y3	Z3	X4	Y4	Z4	X5	Y5	Z5	X6	Y6	Z6	X7	Y7	Z7	X8	Y8	Z8	X9	Y9	Z9	X10	Y10	Z10	X11	Y11	Z11	X12	Y12	Z12	X13	Y13	Z13	X14	Y14	Z14	X15	Y15	Z15	X16	Y16	Z16	X17	Y17	Z17	X18	Y18	Z18	X19	Y19	Z19	X20	Y20	Z20	X21	Y21	Z21	X22	Y22	Z22	X23	Y23	Z23	X24	Y24	Z24	X25	Y25	Z25	X26	Y26	Z26	X27	Y27	Z27	X28	Y28	Z28	X29	Y29	Z29	X30	Y30	Z30	X31	Y31	Z31	X32	Y32	Z32	X33	Y33	Z33	X34	Y34	Z34	X35	Y35	Z35	X36	Y36	Z36	X37	Y37	Z37	X38	Y38	Z38	X39	Y39	Z39	X40	Y40	Z40	X41	Y41	Z41	X42	Y42	Z42	X43	Y43	Z43	X44	Y44	Z44	X45	Y45	Z45	X46	Y46	Z46	X47	Y47	Z47	X48	Y48	Z48	X49	Y49	Z49	X50	Y50	Z50	X51	Y51	Z51	X52	Y52	Z52	X53	Y53	Z53	

236	2.35	-1119.609375	1000.174011230469	-727.7825927734375	-1105.900146484375	996.5825805664062	-902.0811157226562	-1087.362670898438	1074.183715820312	-823.6609497070312	-812.3505249023438	1216.7216796875	-810.9513549804688	-1084.033569335938	1190.517944335938	-834.896240234375	-1000.532409667969	1424.318603515625	-861.103515625	-859.8662109375	1323.324340820312	-828.253173828125	-1079.551513671875	1301.649047851562	-784.8543090820312	-1006.743530273438	1381.185791015625	-964.1226196289062	-910.3132934570312	1372.256591796875	-1004.81494140625	-939.6954956054688	1252.201538085938	-1074.308959960938	-948.6909790039062	1046.805297851562	-1075.945678710938	-1020.645141601562	1041.691772460938	-1026.318481445312	-858.9042358398438	841.4779052734375	-1003.279113769531	-899.6121215820312	814.9459228515625	-1056.91357421875	-934.3084716796875	941.7925415039062	-1071.494140625	-837.6646728515625	658.4546508789062	-975.95263671875	-886.3348999023438	730.1617431640625	-1039.385375976562	-828.3502807617188	742.5728759765625	-1010.290771484375	-958.1610107421875	1406.8544921875	-693.78125	-983.954833984375	1356.4208984375	-626.3154907226562	-1057.597778320312	1106.266357421875	-558.207763671875	-1068.7568359375	1092.304809570312	-652.2874145507812	-997.6477661132812	865.412841796875	-552.2272338867188	-1062.880249023438	879.0607299804688	-498.6343383789062	-1052.890625	1039.774780273438	-533.7382202148438	-1030.037231445312	682.2826538085938	-531.2994384765625	-999.325927734375	751.2069702148438	-512.4420776367188	-1062.1669921875	766.1738891601562	-482.1743469238281	-996.8770141601562	1564.461059570312	-793.5187377929688	-803.6433715820312	1621.225463867188	-862.9939575195312	-828.8333129882812	1614.647827148438	-773.4075317382812	-956.5191650390625	1565.081298828125	-933.650390625	-1037.88427734375	940.598876953125	-994.0307006835938	-1024.023071289062	951.0662231445312	-618.3045043945312	-905.6403198242188	947.1494750976562	-686.9520874023438	-899.0986328125	936.2272338867188	-938.7719116210938	-1041.433227539062	474.3433532714844	-932.5977172851562	-1024.766357421875	614.4912719726562	-962.6840209960938	-1156.407958984375	46.61239242553711	-886.1481323242188	-1106.446411132812	255.2607116699219	-920.7212524414062	-947.3478393554688	43.81143188476562	-826.1480712890625	-1019.313598632812	31.20017433166504	-786.7454223632812	-1032.872314453125	42.35015106201172	-899.1990966796875	-1202.561889648438	42.23625564575195	-825.9313354492188	-843.868408203125	508.7629699707031	-628.7634887695312	-920.1492309570312	759.80908203125	-611.3099975585938	-973.3565063476562	74.44267272949219	-639.2847290039062	-846.0592041015625	381.8412780761719	-634.589111328125	-784.3441162109375	63.829345703125	-694.1655883789062	-841.612060546875	59.21786499023438	-734.0303955078125	-870.6406860351562	54.81700134277344	-618.8477783203125	-1026.754516601562	74.53849029541016	-687.26708984375	
237	2.36	-1116.995971679688	999.8672485351562	-728.203857421875	-1102.437866210938	996.1322631835938	-902.3958129882812	-1084.243530273438	1073.793334960938	-824.1879272460938	-809.0154418945312	1216.1806640625	-809.5613403320312	-1080.652221679688	1190.254150390625	-835.5467529296875	-996.5342407226562	1423.924438476562	-861.0069580078125	-856.3592529296875	1322.80712890625	-827.1091918945312	-1076.3251953125	1301.277221679688	-785.5096435546875	-1002.03662109375	1380.850219726562	-964.09033203125	-905.2363891601562	1371.80810546875	-1004.022583007812	-934.3006591796875	1251.68408203125	-1073.662353515625	-943.32958984375	1046.316040039062	-1074.94775390625	-1015.778869628906	1041.190307617188	-1026.034545898438	-852.6664428710938	842.1024169921875	-1000.785400390625	-892.8740844726562	814.9442138671875	-1054.457275390625	-928.4092407226562	941.4317626953125	-1069.996215820312	-829.622314453125	659.7051391601562	-972.2896118164062	-878.8578491210938	730.440673828125	-1036.436157226562	-820.9356079101562	743.5830688476562	-1007.210266113281	-955.6580200195312	1406.313354492188	-693.3336181640625	-982.2298583984375	1356.034301757812	-626.1509399414062	-1058.39697265625	1106.520385742188	-558.9942626953125	-1068.043334960938	1092.427124023438	-653.0974731445312	-1000.791870117188	865.12060546875	-551.440673828125	-1066.625732421875	879.6376342773438	-498.8510131835938	-1054.521362304688	1040.119018554688	-534.1821899414062	-1035.438598632812	682.4066162109375	-530.5574951171875	-1004.393859863281	750.9312744140625	-511.46044921875	-1067.420043945312	766.7676391601562	-482.1172180175781	-993.6346435546875	1563.808471679688	-793.2759399414062	-799.87841796875	1620.81005859375	-861.3217163085938	-825.8026123046875	1614.194702148438	-771.8883056640625	-952.1373901367188	1564.484985351562	-933.1032104492188	-1034.088256835938	940.0305786132812	-993.993896484375	-1021.85107421875	950.9716186523438	-618.306884765625	-903.1603393554688	946.8939208984375	-686.3695678710938	-895.555908203125	935.6875	-938.163330078125	-1039.099853515625	473.9959411621094	-932.3037719726562	-1021.906860351562	614.069580078125	-962.3155517578125	-1156.364013671875	46.65771484375	-886.1287231445312	-1105.14501953125	255.1172790527344	-920.557373046875	-947.5391845703125	43.54061889648438	-826.21240234375	-1019.244384765625	31.00843048095703	-786.7284545898438	-1032.82763671875	42.31851577758789	-899.1519165039062	-1202.567626953125	42.32510375976562	-825.9131469726562	-839.1055908203125	509.4446411132812	-629.2772216796875	-917.0322265625	760.2601318359375	-611.1393432617188	-955.9774780273438	71.18785858154297	-641.0982055664062	-837.9775390625	382.3804016113281	-635.2305908203125	-766.4390869140625	65.79075622558594	-695.744140625	-823.685791015625	60.14067077636719	-735.5510864257812	-852.7488403320312	54.32491683959961	-620.6261596679688	-1009.158569335938	70.01863861083984	-689.11865234375	
238	2.37	-1114.22314453125	999.466064453125	-728.5773315429688	-1098.813354492188	995.6113891601562	-902.6608276367188	-1081.017211914062	1073.365356445312	-824.68994140625	-805.56640625	1215.6064453125	-808.1356811523438	-1077.090942382812	1189.932739257812	-836.1768188476562	-992.4180297851562	1423.493774414062	-860.8653564453125	-852.7293701171875	1322.259155273438	-825.9220581054688	-1072.955688476562	1300.858154296875	-786.1408081054688	-997.1923217773438	1380.48388671875	-964.0121459960938	-900.0511474609375	1371.33935546875	-1003.173278808594	-928.73388671875	1251.157836914062	-1072.974975585938	-937.8033447265625	1045.824584960938	-1073.917358398438	-1010.76220703125	1040.665649414062	-1025.766723632812	-846.155517578125	842.8770141601562	-998.1958618164062	-885.8330688476562	815.0099487304688	-1051.907836914062	-922.2941284179688	941.0975341796875	-1068.451049804688	-821.1085205078125	661.2224731445312	-968.4666748046875	-871.0689697265625	730.8178100585938	-1033.359497070312	-813.1762084960938	744.7753295898438	-1003.958068847656	-953.0545654296875	1405.733032226562	-692.855712890625	-980.3876953125	1355.605102539062	-625.9644775390625	-1059.020629882812	1106.73095703125	-559.7973022460938	-1067.182495117188	1092.50048828125	-653.9095458984375	-1003.841125488281	864.8045043945312	-550.6974487304688	-1070.238037109375	880.21484375	-499.1459350585938	-1055.997802734375	1040.439575195312	-534.6648559570312	-1040.708129882812	682.5513305664062	-529.9056396484375	-1009.342102050781	750.6624755859375	-510.5684204101562	-1072.543579101562	767.3787841796875	-482.1525573730469	-990.3024291992188	1563.090209960938	-792.9740600585938	-796.0541381835938	1620.38623046875	-859.5477905273438	-822.69140625	1613.713012695312	-770.2860107421875	-947.641357421875	1563.868774414062	-932.4864501953125	-1030.094116210938	939.4212036132812	-993.90478515625	-1019.552368164062	950.8251342773438	-618.2576904296875	-900.5242309570312	946.643798828125	-685.7252197265625	-891.9227294921875	935.0607299804688	-937.456787109375	-1036.584716796875	473.6192626953125	-931.9577026367188	-1018.768371582031	613.5917358398438	-961.8855590820312	-1156.31787109375	46.71110153198242	-886.1083984375	-1103.74462890625	254.9677276611328	-920.3583984375	-947.83447265625	43.18010330200195	-826.2647705078125	-1019.160766601562	30.83214950561523	-786.7098388671875	-1032.783447265625	42.28208923339844	-899.103271484375	-1202.568969726562	42.43144226074219	-825.89453125	-834.3677978515625	509.9977111816406	-629.8406372070312	-913.7179565429688	760.617431640625	-610.9347534179688	-938.14306640625	68.10042572021484	-642.724365234375	-829.8646850585938	382.9154968261719	-635.85986328125	-748.1805419921875	67.92399597167969	-696.9500122070312	-805.3519287109375	61.1888542175293	-736.7111206054688	-834.514892578125	54.07094573974609	-622.1124267578125	-991.0883178710938	65.62596130371094	-690.8543090820312	
239	2.38	-1111.277465820312	998.9654541015625	-728.8806762695312	-1095.03125	995.030029296875	-902.8544311523438	-1077.683837890625	1072.899047851562	-825.1504516601562	-802.0011596679688	1214.9951171875	-806.6698608398438	-1073.35595703125	1189.545166015625	-836.7693481445312	-988.1826782226562	1423.019653320312	-860.676513671875	-848.9737548828125	1321.673217773438	-824.687255859375	-1069.448364257812	1300.385864257812	-786.7438354492188	-992.2130126953125	1380.07666015625	-963.8873901367188	-894.771240234375	1370.837158203125	-1002.267822265625	-922.9969482421875	1250.609985351562	-1072.248901367188	-932.1122436523438	1045.317260742188	-1072.861572265625	-1005.599609375	1040.10107421875	-1025.526733398438	-839.3548583984375	843.8011474609375	-995.5252685546875	-878.4968872070312	815.1340942382812	-1049.278198242188	-915.9703369140625	940.7791137695312	-1066.867797851562	-812.1385498046875	662.98681640625	-964.50048828125	-862.9876098632812	731.285400390625	-1030.158813476562	-805.1190185546875	746.1181030273438	-1000.542724609375	-950.3477783203125	1405.109619140625	-692.3491821289062	-978.4276123046875	1355.132934570312	-625.7561645507812	-1059.454345703125	1106.894653320312	-560.6023559570312	-1066.169067382812	1092.518798828125	-654.7197265625	-1006.764831542969	864.4705810546875	-549.9911499023438	-1073.691650390625	880.7836303710938	-499.5138549804688	-1057.31591796875	1040.735107421875	-535.1841430664062	-1045.822021484375	682.7125854492188	-529.3643798828125	-1014.1259765625	750.4041748046875	-509.7695007324219	-1077.511474609375	767.9976806640625	-482.2890930175781	-986.8777465820312	1562.300903320312	-792.6134643554688	-792.1810302734375	1619.944091796875	-857.6788940429688	-819.4979248046875	1613.192016601562	-768.6072998046875	-943.0387573242188	1563.224609375	-931.8010864257812	-1025.918701171875	938.781494140625	-993.7534790039062	-1017.085388183594	950.607177734375	-618.1425170898438	-897.7131958007812	946.3894653320312	-685.0259399414062	-888.1685791015625	934.3574829101562	-936.6604614257812	-1033.889892578125	473.2102661132812	-931.5614624023438	-1015.3681640625	613.06103515625	-961.3954467773438	-1156.27001953125	46.77319717407227	-886.0869140625	-1102.248291015625	254.8072204589844	-920.1290893554688	-948.1937866210938	42.762939453125	-826.30908203125	-1019.073120117188	30.67539978027344	-786.6891479492188	-1032.7431640625	42.24306869506836	-899.0543212890625	-1202.564453125	42.5582160949707	-825.875732421875	-829.6458129882812	510.4132080078125	-630.4196166992188	-910.2124633789062	760.8595581054688	-610.68701171875	-919.9710083007812	65.235595703125	-644.1749877929688	-821.7464599609375	383.4431457519531	-636.4522705078125	-729.697998046875	70.22211456298828	-697.8298950195312	-786.7236328125	62.37620162963867	-737.560791015625	-816.0504150390625	54.04506683349609	-623.343017578125	-972.665771484375	61.45995712280273	-692.4708251953125	
